<svg xmlns="http://www.w3.org/2000/svg" xmlns:ev="http://www.w3.org/2001/xml-events" xmlns:xlink="http://www.w3.org/1999/xlink" width="100%" height="100%" baseProfile="full" version="1.1" viewBox="0 0 235 135"><rect width="100" height="85" x="2.5" y="2.5" fill="none" stroke="#f97868" rx="5" ry="5"/><text x="104" y="15" fill="#f97868" font-size="12">Core</text><text x="104" y="27" fill="#f97868" font-size="12">LM</text><rect width="95" height="20" x="5" y="5" fill="none" stroke="#f97868" stroke-width=".5" rx="5" ry="5"/><text x="10" y="18.5" fill="#f97868" font-size="9">Base</text><line x1="57.25" x2="57.25" y1="5" y2="25" stroke="#f97868" stroke-width=".5"/><text x="59.25" y="12.5" fill="#505050" font-size="6">74M</text><text x="80.25" y="12.5" fill="#505050" font-size="6">149M</text><text x="80.25" y="22.5" fill="#505050" font-size="6">30hr</text><rect width="95" height="20" x="5" y="25" fill="none" stroke="#f97868" stroke-width=".5" rx="5" ry="5"/><text x="10" y="39.5" fill="#f97868" font-size="12">+</text><text x="20" y="33.5" fill="#f97868" font-size="8">Adaptive</text><text x="20" y="43.5" fill="#f97868" font-size="8">Embed</text><line x1="57.25" x2="57.25" y1="25" y2="45" stroke="#f97868" stroke-width=".5"/><text x="59.25" y="32.5" fill="#29a229" font-size="6">8.3M</text><text x="80.25" y="32.5" fill="#29a229" font-size="6">17M</text><text x="59.25" y="42.5" fill="#505050" font-size="6">39.5</text><rect width="95" height="20" x="5" y="45" fill="none" stroke="#f97868" stroke-width=".5" rx="5" ry="5"/><text x="10" y="59.5" fill="#f97868" font-size="12">+</text><text x="20" y="53.5" fill="#f97868" font-size="8">Training</text><text x="20" y="63.5" fill="#f97868" font-size="8">Cache</text><line x1="57.25" x2="57.25" y1="45" y2="65" stroke="#f97868" stroke-width=".5"/><text x="80.25" y="52.5" fill="#ff3126" font-size="6">18M</text><text x="59.25" y="62.5" fill="#29a229" font-size="6">33.7</text><rect width="95" height="20" x="5" y="65" fill="none" stroke="#f97868" stroke-width=".5" rx="5" ry="5"/><text x="10" y="79.5" fill="#f97868" font-size="12">+</text><text x="20" y="73.5" fill="#f97868" font-size="8">Hebbian</text><text x="20" y="83.5" fill="#f97868" font-size="8">Softmax</text><line x1="57.25" x2="57.25" y1="65" y2="85" stroke="#f97868" stroke-width=".5"/><text x="59.25" y="82.5" fill="#29a229" font-size="6">33.6</text><rect width="95" height="20" x="5" y="90" fill="none" stroke="#505050" stroke-width=".5" rx="5" ry="5"/><text x="10" y="98.5" fill="#505050" font-size="9">Cache</text><text x="10" y="108.5" fill="#505050" font-size="9">Search</text><line x1="57.25" x2="57.25" y1="90" y2="110" stroke="#505050" stroke-width=".5"/><text x="59.25" y="107.5" fill="#29a229" font-size="6">33.0</text><text x="80.25" y="107.5" fill="#505050" font-size="6">3min</text><rect width="95" height="20" x="137.5" y="2.5" fill="none" stroke="#007aa5" stroke-width=".5" rx="5" ry="5"/><text x="142.5" y="16" fill="#007aa5" font-size="9">Teacher</text><line x1="189.75" x2="189.75" y1="2.5" y2="22.5" stroke="#007aa5" stroke-width=".5"/><text x="191.75" y="10" fill="#505050" font-size="6">53.9M</text><text x="212.75" y="10" fill="#505050" font-size="6">111M</text><text x="191.75" y="20" fill="#505050" font-size="6">23.0</text><text x="212.75" y="20" fill="#505050" font-size="6">48hr</text><rect width="95" height="20" x="137.5" y="25" fill="none" stroke="#f97868" stroke-width=".5" rx="5" ry="5"/><text x="142.5" y="38.5" fill="#f97868" font-size="9">Core LM</text><line x1="189.75" x2="189.75" y1="25" y2="45" stroke="#f97868" stroke-width=".5"/><text x="191.75" y="32.5" fill="#505050" font-size="6">8.3M</text><text x="212.75" y="32.5" fill="#505050" font-size="6">18M</text><text x="191.75" y="42.5" fill="#505050" font-size="6">33.6</text><text x="212.75" y="42.5" fill="#505050" font-size="6">30hr</text><rect width="95" height="20" x="137.5" y="45" fill="none" stroke="#007aa5" stroke-width=".5" rx="5" ry="5"/><text x="142.5" y="59.5" fill="#007aa5" font-size="12">+</text><text x="152.5" y="58.5" fill="#007aa5" font-size="9">Distill</text><line x1="189.75" x2="189.75" y1="45" y2="65" stroke="#007aa5" stroke-width=".5"/><text x="191.75" y="62.5" fill="#29a229" font-size="6">32.4</text><rect width="95" height="20" x="137.5" y="67.5" fill="none" stroke="#007aa5" stroke-width=".5" rx="5" ry="5"/><text x="142.5" y="81" fill="#007aa5" font-size="9">Prune</text><line x1="189.75" x2="189.75" y1="67.5" y2="87.5" stroke="#007aa5" stroke-width=".5"/><text x="191.75" y="75" fill="#29a229" font-size="6">5.6M</text><text x="212.75" y="75" fill="#29a229" font-size="6">13M</text><text x="191.75" y="85" fill="#ff3126" font-size="6">34.6</text><text x="212.75" y="85" fill="#505050" font-size="6">15hr</text><rect width="95" height="20" x="137.5" y="90" fill="none" stroke="#505050" stroke-width=".5" rx="5" ry="5"/><text x="142.5" y="98.5" fill="#505050" font-size="9">Cache</text><text x="142.5" y="108.5" fill="#505050" font-size="9">Search</text><line x1="189.75" x2="189.75" y1="90" y2="110" stroke="#505050" stroke-width=".5"/><text x="191.75" y="107.5" fill="#29a229" font-size="6">33.8</text><text x="212.75" y="107.5" fill="#505050" font-size="6">3min</text><rect width="95" height="20" x="137.5" y="112.5" fill="none" stroke="#007aa5" stroke-width=".5" rx="5" ry="5"/><text x="142.5" y="126" fill="#007aa5" font-size="9">Quantize</text><line x1="189.75" x2="189.75" y1="112.5" y2="132.5" stroke="#007aa5" stroke-width=".5"/><text x="191.75" y="120" fill="#29a229" font-size="6">1.8M</text><text x="212.75" y="120" fill="#29a229" font-size="6">8.8M</text><text x="191.75" y="130" fill="#ff3126" font-size="6">34.1</text><text x="212.75" y="130" fill="#505050" font-size="6">2min</text></svg>